{
  "accessors": [
    {
      "bufferView": 2,
      "componentType": 5126,
      "count": 439,
      "max": [
        99.1186752319336,
        99.1186752319336,
        99.11868286132813
      ],
      "min": [
        -99.11869812011719,
        -99.1186752319336,
        -99.11872100830078
      ],
      "type": "VEC3"
    },
    {
      "bufferView": 2,
      "byteOffset": 5268,
      "componentType": 5126,
      "count": 439,
      "max": [
        1.0,
        1.0,
        1.0
      ],
      "min": [
        -1.0,
        -1.0,
        -1.0
      ],
      "type": "VEC3"
    },
    {
      "bufferView": 1,
      "componentType": 5126,
      "count": 439,
      "max": [
        1.0000001192092896,
        1.0
      ],
      "min": [
        0.0,
        0.0
      ],
      "type": "VEC2"
    },
    {
      "bufferView": 0,
      "componentType": 5125,
      "count": 2280,
      "type": "SCALAR"
    },
    {
      "bufferView": 2,
      "byteOffset": 10536,
      "componentType": 5126,
      "count": 439,
      "max": [
        83.48705291748047,
        83.48705291748047,
        83.487060546875
      ],
      "min": [
        -83.48707580566406,
        -83.48705291748047,
        -83.48709106445313
      ],
      "type": "VEC3"
    },
    {
      "bufferView": 2,
      "byteOffset": 15804,
      "componentType": 5126,
      "count": 439,
      "max": [
        1.0,
        1.0,
        1.0
      ],
      "min": [
        -1.0,
        -1.0,
        -1.0
      ],
      "type": "VEC3"
    },
    {
      "bufferView": 1,
      "byteOffset": 3512,
      "componentType": 5126,
      "count": 439,
      "max": [
        1.0000001192092896,
        1.0
      ],
      "min": [
        0.0,
        0.0
      ],
      "type": "VEC2"
    },
    {
      "bufferView": 0,
      "byteOffset": 9120,
      "componentType": 5125,
      "count": 2280,
      "type": "SCALAR"
    },
    {
      "bufferView": 2,
      "byteOffset": 21072,
      "componentType": 5126,
      "count": 439,
      "max": [
        85.44371032714844,
        85.44371032714844,
        85.4437255859375
      ],
      "min": [
        -85.44374084472656,
        -85.44371032714844,
        -85.44375610351563
      ],
      "type": "VEC3"
    },
    {
      "bufferView": 2,
      "byteOffset": 26340,
      "componentType": 5126,
      "count": 439,
      "max": [
        1.0,
        1.0,
        1.0
      ],
      "min": [
        -1.0,
        -1.0,
        -1.0
      ],
      "type": "VEC3"
    },
    {
      "bufferView": 1,
      "byteOffset": 7024,
      "componentType": 5126,
      "count": 439,
      "max": [
        1.0000001192092896,
        1.0
      ],
      "min": [
        0.0,
        0.0
      ],
      "type": "VEC2"
    },
    {
      "bufferView": 0,
      "byteOffset": 18240,
      "componentType": 5125,
      "count": 2280,
      "type": "SCALAR"
    },
    {
      "bufferView": 2,
      "byteOffset": 31608,
      "componentType": 5126,
      "count": 439,
      "max": [
        80.11329650878906,
        80.11328125,
        80.1133041381836
      ],
      "min": [
        -80.11329650878906,
        -80.11328125,
        -80.1133041381836
      ],
      "type": "VEC3"
    },
    {
      "bufferView": 2,
      "byteOffset": 36876,
      "componentType": 5126,
      "count": 439,
      "max": [
        1.0,
        1.0,
        1.0
      ],
      "min": [
        -1.0,
        -1.0,
        -1.0
      ],
      "type": "VEC3"
    },
    {
      "bufferView": 1,
      "byteOffset": 10536,
      "componentType": 5126,
      "count": 439,
      "max": [
        1.0000001192092896,
        1.0
      ],
      "min": [
        0.0,
        0.0
      ],
      "type": "VEC2"
    },
    {
      "bufferView": 0,
      "byteOffset": 27360,
      "componentType": 5125,
      "count": 2280,
      "type": "SCALAR"
    },
    {
      "bufferView": 2,
      "byteOffset": 42144,
      "componentType": 5126,
      "count": 439,
      "max": [
        71.03305053710938,
        71.2125244140625,
        71.03304290771484
      ],
      "min": [
        -71.03305053710938,
        -71.2125244140625,
        -71.03304290771484
      ],
      "type": "VEC3"
    },
    {
      "bufferView": 2,
      "byteOffset": 47412,
      "componentType": 5126,
      "count": 439,
      "max": [
        0.9974792003631592,
        1.0,
        0.997479259967804
      ],
      "min": [
        -0.9974792003631592,
        -1.0,
        -0.997479259967804
      ],
      "type": "VEC3"
    },
    {
      "bufferView": 1,
      "byteOffset": 14048,
      "componentType": 5126,
      "count": 439,
      "max": [
        1.0000001192092896,
        1.0
      ],
      "min": [
        0.0,
        0.0
      ],
      "type": "VEC2"
    },
    {
      "bufferView": 0,
      "byteOffset": 36480,
      "componentType": 5125,
      "count": 2280,
      "type": "SCALAR"
    },
    {
      "bufferView": 2,
      "byteOffset": 52680,
      "componentType": 5126,
      "count": 439,
      "max": [
        62.66322326660156,
        63.30066680908203,
        62.66321563720703
      ],
      "min": [
        -62.66322326660156,
        -63.30066680908203,
        -62.66321563720703
      ],
      "type": "VEC3"
    },
    {
      "bufferView": 2,
      "byteOffset": 57948,
      "componentType": 5126,
      "count": 439,
      "max": [
        0.9899295568466187,
        1.0,
        0.9899295568466187
      ],
      "min": [
        -0.9899296760559082,
        -1.0,
        -0.9899296760559082
      ],
      "type": "VEC3"
    },
    {
      "bufferView": 1,
      "byteOffset": 17560,
      "componentType": 5126,
      "count": 439,
      "max": [
        1.0000001192092896,
        1.0
      ],
      "min": [
        0.0,
        0.0
      ],
      "type": "VEC2"
    },
    {
      "bufferView": 0,
      "byteOffset": 45600,
      "componentType": 5125,
      "count": 2280,
      "type": "SCALAR"
    },
    {
      "bufferView": 2,
      "byteOffset": 63216,
      "componentType": 5126,
      "count": 439,
      "max": [
        49.99373245239258,
        50.016353607177734,
        49.993743896484375
      ],
      "min": [
        -49.99373245239258,
        -50.016353607177734,
        -49.993743896484375
      ],
      "type": "VEC3"
    },
    {
      "bufferView": 2,
      "byteOffset": 68484,
      "componentType": 5126,
      "count": 439,
      "max": [
        0.9995476007461548,
        1.0,
        0.99954754114151
      ],
      "min": [
        -0.9995476007461548,
        -1.0,
        -0.9995476007461548
      ],
      "type": "VEC3"
    },
    {
      "bufferView": 1,
      "byteOffset": 21072,
      "componentType": 5126,
      "count": 439,
      "max": [
        1.0000001192092896,
        1.0
      ],
      "min": [
        0.0,
        0.0
      ],
      "type": "VEC2"
    },
    {
      "bufferView": 0,
      "byteOffset": 54720,
      "componentType": 5125,
      "count": 2280,
      "type": "SCALAR"
    },
    {
      "bufferView": 2,
      "byteOffset": 73752,
      "componentType": 5126,
      "count": 439,
      "max": [
        39.27250671386719,
        39.519893646240234,
        39.272499084472656
      ],
      "min": [
        -39.27250671386719,
        -39.519893646240234,
        -39.272499084472656
      ],
      "type": "VEC3"
    },
    {
      "bufferView": 2,
      "byteOffset": 79020,
      "componentType": 5126,
      "count": 439,
      "max": [
        0.993739664554596,
        1.0,
        0.993739664554596
      ],
      "min": [
        -0.9937398433685303,
        -1.0,
        -0.9937396049499512
      ],
      "type": "VEC3"
    },
    {
      "bufferView": 1,
      "byteOffset": 24584,
      "componentType": 5126,
      "count": 439,
      "max": [
        1.0000001192092896,
        1.0
      ],
      "min": [
        0.0,
        0.0
      ],
      "type": "VEC2"
    },
    {
      "bufferView": 0,
      "byteOffset": 63840,
      "componentType": 5125,
      "count": 2280,
      "type": "SCALAR"
    },
    {
      "bufferView": 2,
      "byteOffset": 84288,
      "componentType": 5126,
      "count": 439,
      "max": [
        28.70746421813965,
        28.75949478149414,
        28.70745849609375
      ],
      "min": [
        -28.70746421813965,
        -28.75949478149414,
        -28.70745849609375
      ],
      "type": "VEC3"
    },
    {
      "bufferView": 2,
      "byteOffset": 89556,
      "componentType": 5126,
      "count": 439,
      "max": [
        0.9981905817985535,
        1.0,
        0.9981906414031982
      ],
      "min": [
        -0.9981905817985535,
        -1.0,
        -0.9981905221939087
      ],
      "type": "VEC3"
    },
    {
      "bufferView": 1,
      "byteOffset": 28096,
      "componentType": 5126,
      "count": 439,
      "max": [
        1.0000001192092896,
        1.0
      ],
      "min": [
        0.0,
        0.0
      ],
      "type": "VEC2"
    },
    {
      "bufferView": 0,
      "byteOffset": 72960,
      "componentType": 5125,
      "count": 2280,
      "type": "SCALAR"
    },
    {
      "bufferView": 3,
      "componentType": 5126,
      "count": 3000,
      "max": [
        100.0
      ],
      "min": [
        0.03333333507180214
      ],
      "type": "SCALAR"
    },
    {
      "bufferView": 4,
      "componentType": 5126,
      "count": 3000,
      "max": [
        8.363709862051858e-17,
        0.9999998807907104,
        8.363709862051858e-17,
        1.0
      ],
      "min": [
        -8.659559941682064e-17,
        -0.8656760454177856,
        -8.659559941682064e-17,
        -0.4996974766254425
      ],
      "type": "VEC4"
    },
    {
      "bufferView": 3,
      "byteOffset": 12000,
      "componentType": 5126,
      "count": 3000,
      "max": [
        100.0
      ],
      "min": [
        0.03333333507180214
      ],
      "type": "SCALAR"
    },
    {
      "bufferView": 4,
      "byteOffset": 48000,
      "componentType": 5126,
      "count": 3000,
      "max": [
        0.0,
        0.0,
        0.9999998807907104,
        1.0
      ],
      "min": [
        0.0,
        0.0,
        -0.8656760454177856,
        -0.4996974766254425
      ],
      "type": "VEC4"
    },
    {
      "bufferView": 3,
      "byteOffset": 24000,
      "componentType": 5126,
      "count": 3000,
      "max": [
        100.0
      ],
      "min": [
        0.03333333507180214
      ],
      "type": "SCALAR"
    },
    {
      "bufferView": 4,
      "byteOffset": 96000,
      "componentType": 5126,
      "count": 3000,
      "max": [
        0.0,
        0.0,
        0.9999998807907104,
        1.0
      ],
      "min": [
        0.0,
        0.0,
        -0.8656759858131409,
        -0.49969759583473206
      ],
      "type": "VEC4"
    },
    {
      "bufferView": 3,
      "byteOffset": 36000,
      "componentType": 5126,
      "count": 3000,
      "max": [
        100.0
      ],
      "min": [
        0.03333333507180214
      ],
      "type": "SCALAR"
    },
    {
      "bufferView": 4,
      "byteOffset": 144000,
      "componentType": 5126,
      "count": 3000,
      "max": [
        0.9999998807907104,
        0.0,
        0.0,
        1.0
      ],
      "min": [
        -0.8656760454177856,
        0.0,
        0.0,
        -0.4996974766254425
      ],
      "type": "VEC4"
    },
    {
      "bufferView": 3,
      "byteOffset": 48000,
      "componentType": 5126,
      "count": 3000,
      "max": [
        100.0
      ],
      "min": [
        0.03333333507180214
      ],
      "type": "SCALAR"
    },
    {
      "bufferView": 4,
      "byteOffset": 192000,
      "componentType": 5126,
      "count": 3000,
      "max": [
        8.363709862051858e-17,
        0.9999998807907104,
        8.363709862051858e-17,
        1.0
      ],
      "min": [
        -8.659559941682064e-17,
        -0.8656759858131409,
        -8.659559941682064e-17,
        -0.49969759583473206
      ],
      "type": "VEC4"
    },
    {
      "bufferView": 3,
      "byteOffset": 60000,
      "componentType": 5126,
      "count": 3000,
      "max": [
        100.0
      ],
      "min": [
        0.03333333507180214
      ],
      "type": "SCALAR"
    },
    {
      "bufferView": 4,
      "byteOffset": 240000,
      "componentType": 5126,
      "count": 3000,
      "max": [
        0.9999998807907104,
        0.0,
        0.0,
        1.0
      ],
      "min": [
        -0.8656759858131409,
        0.0,
        0.0,
        -0.49969759583473206
      ],
      "type": "VEC4"
    }
  ],
  "animations": [
    {
      "channels": [
        {
          "sampler": 0,
          "target": {
            "node": 10,
            "path": "rotation"
          }
        },
        {
          "sampler": 1,
          "target": {
            "node": 12,
            "path": "rotation"
          }
        },
        {
          "sampler": 2,
          "target": {
            "node": 14,
            "path": "rotation"
          }
        },
        {
          "sampler": 3,
          "target": {
            "node": 16,
            "path": "rotation"
          }
        },
        {
          "sampler": 4,
          "target": {
            "node": 18,
            "path": "rotation"
          }
        },
        {
          "sampler": 5,
          "target": {
            "node": 20,
            "path": "rotation"
          }
        }
      ],
      "name": "Take 001",
      "samplers": [
        {
          "input": 36,
          "interpolation": "LINEAR",
          "output": 37
        },
        {
          "input": 38,
          "interpolation": "LINEAR",
          "output": 39
        },
        {
          "input": 40,
          "interpolation": "LINEAR",
          "output": 41
        },
        {
          "input": 42,
          "interpolation": "LINEAR",
          "output": 43
        },
        {
          "input": 44,
          "interpolation": "LINEAR",
          "output": 45
        },
        {
          "input": 46,
          "interpolation": "LINEAR",
          "output": 47
        }
      ]
    }
  ],
  "asset": {
    "extras": {
      "author": "WarderiiK (https://sketchfab.com/WarderiiK)",
      "license": "CC-BY-4.0 (http://creativecommons.org/licenses/by/4.0/)",
      "source": "https://sketchfab.com/3d-models/crystal-ball-test-fc727811052a4b2ba9ef2ffa327e8349",
      "title": "Crystal Ball Test"
    },
    "generator": "Sketchfab-12.67.0",
    "version": "2.0"
  },
  "bufferViews": [
    {
      "buffer": 0,
      "byteLength": 82080,
      "name": "floatBufferViews",
      "target": 34963
    },
    {
      "buffer": 0,
      "byteLength": 31608,
      "byteOffset": 82080,
      "byteStride": 8,
      "name": "floatBufferViews",
      "target": 34962
    },
    {
      "buffer": 0,
      "byteLength": 94824,
      "byteOffset": 113688,
      "byteStride": 12,
      "name": "floatBufferViews",
      "target": 34962
    },
    {
      "buffer": 0,
      "byteLength": 72000,
      "byteOffset": 208512,
      "name": "floatBufferViews"
    },
    {
      "buffer": 0,
      "byteLength": 288000,
      "byteOffset": 280512,
      "byteStride": 16,
      "name": "floatBufferViews"
    }
  ],
  "buffers": [
    {
      "byteLength": 568512,
      "uri": "scene.bin"
    }
  ],
  "extensionsUsed": [
    "KHR_materials_transmission"
  ],
  "images": [
    {
      "uri": "textures/Galaxy_baseColor.png"
    },
    {
      "uri": "textures/Galaxy_emissive.png"
    },
    {
      "uri": "textures/material_baseColor.png"
    },
    {
      "uri": "textures/material_emissive.png"
    },
    {
      "uri": "textures/StarsInner_baseColor.png"
    },
    {
      "uri": "textures/StarsInner_emissive.png"
    }
  ],
  "materials": [
    {
      "alphaMode": "BLEND",
      "doubleSided": true,
      "extensions": {
        "KHR_materials_transmission": {
          "transmissionFactor": 0.6760407736412333
        }
      },
      "name": "StarsOuter",
      "pbrMetallicRoughness": {
        "baseColorFactor": [
          0.07904066574001019,
          0.0,
          0.10829235995947611,
          0.3239592263587667
        ],
        "roughnessFactor": 0.28747818737877656
      }
    },
    {
      "alphaMode": "BLEND",
      "emissiveFactor": [
        1.0,
        1.0,
        1.0
      ],
      "emissiveTexture": {
        "index": 1
      },
      "name": "Galaxy",
      "pbrMetallicRoughness": {
        "baseColorFactor": [
          0.5,
          0.5,
          0.5,
          1.0
        ],
        "baseColorTexture": {
          "index": 0
        },
        "metallicFactor": 0.0,
        "roughnessFactor": 0.6
      }
    },
    {
      "alphaMode": "BLEND",
      "doubleSided": true,
      "emissiveFactor": [
        1.0,
        1.0,
        1.0
      ],
      "emissiveTexture": {
        "index": 3
      },
      "name": "material",
      "pbrMetallicRoughness": {
        "baseColorFactor": [
          0.5,
          0.5,
          0.5,
          1.0
        ],
        "baseColorTexture": {
          "index": 2
        },
        "metallicFactor": 0.0,
        "roughnessFactor": 0.6
      }
    },
    {
      "alphaMode": "BLEND",
      "emissiveFactor": [
        1.0,
        1.0,
        1.0
      ],
      "emissiveTexture": {
        "index": 5
      },
      "name": "StarsInner",
      "pbrMetallicRoughness": {
        "baseColorFactor": [
          0.0,
          0.0,
          0.0,
          1.0
        ],
        "baseColorTexture": {
          "index": 4
        },
        "metallicFactor": 0.0
      }
    }
  ],
  "meshes": [
    {
      "name": "StarsOuterSphere1_StarsOuter_0",
      "primitives": [
        {
          "attributes": {
            "NORMAL": 1,
            "POSITION": 0,
            "TEXCOORD_0": 2
          },
          "indices": 3,
          "material": 0,
          "mode": 4
        }
      ]
    },
    {
      "name": "GalaxySphere1_Galaxy_0",
      "primitives": [
        {
          "attributes": {
            "NORMAL": 5,
            "POSITION": 4,
            "TEXCOORD_0": 6
          },
          "indices": 7,
          "material": 1,
          "mode": 4
        }
      ]
    },
    {
      "name": "FogSphere1_Fog_0",
      "primitives": [
        {
          "attributes": {
            "NORMAL": 9,
            "POSITION": 8,
            "TEXCOORD_0": 10
          },
          "indices": 11,
          "material": 2,
          "mode": 4
        }
      ]
    },
    {
      "name": "StarsInnerSphere1_StarsInner_0",
      "primitives": [
        {
          "attributes": {
            "NORMAL": 13,
            "POSITION": 12,
            "TEXCOORD_0": 14
          },
          "indices": 15,
          "material": 3,
          "mode": 4
        }
      ]
    },
    {
      "name": "StarsInnerSphere2_StarsInner_0",
      "primitives": [
        {
          "attributes": {
            "NORMAL": 17,
            "POSITION": 16,
            "TEXCOORD_0": 18
          },
          "indices": 19,
          "material": 3,
          "mode": 4
        }
      ]
    },
    {
      "name": "StarsInnerSphere3_StarsInner_0",
      "primitives": [
        {
          "attributes": {
            "NORMAL": 21,
            "POSITION": 20,
            "TEXCOORD_0": 22
          },
          "indices": 23,
          "material": 3,
          "mode": 4
        }
      ]
    },
    {
      "name": "StarsInnerSphere5_StarsInner_0",
      "primitives": [
        {
          "attributes": {
            "NORMAL": 25,
            "POSITION": 24,
            "TEXCOORD_0": 26
          },
          "indices": 27,
          "material": 3,
          "mode": 4
        }
      ]
    },
    {
      "name": "StarsInnerSphere7_StarsInner_0",
      "primitives": [
        {
          "attributes": {
            "NORMAL": 29,
            "POSITION": 28,
            "TEXCOORD_0": 30
          },
          "indices": 31,
          "material": 3,
          "mode": 4
        }
      ]
    },
    {
      "name": "StarsInnerSphere9_StarsInner_0",
      "primitives": [
        {
          "attributes": {
            "NORMAL": 33,
            "POSITION": 32,
            "TEXCOORD_0": 34
          },
          "indices": 35,
          "material": 3,
          "mode": 4
        }
      ]
    }
  ],
  "nodes": [
    {
      "children": [
        1
      ],
      "matrix": [
        1.0,
        0.0,
        0.0,
        0.0,
        0.0,
        2.220446049250313e-16,
        -1.0,
        0.0,
        0.0,
        1.0,
        2.220446049250313e-16,
        0.0,
        0.0,
        0.0,
        0.0,
        1.0
      ],
      "name": "Sketchfab_model"
    },
    {
      "children": [
        2
      ],
      "matrix": [
        1.0,
        0.0,
        0.0,
        0.0,
        0.0,
        0.0,
        1.0,
        0.0,
        0.0,
        -1.0,
        0.0,
        0.0,
        0.0,
        0.0,
        0.0,
        1.0
      ],
      "name": "f123a6567ad54d0295d81e2fa4a87b16.fbx"
    },
    {
      "children": [
        3
      ],
      "name": "Object_2"
    },
    {
      "children": [
        4,
        6,
        8,
        10,
        12,
        14,
        16,
        18,
        20
      ],
      "name": "RootNode"
    },
    {
      "children": [
        5
      ],
      "name": "StarsOuterSphere1",
      "translation": [
        0.0,
        0.0,
        -214.63577270507813
      ]
    },
    {
      "mesh": 0,
      "name": "StarsOuterSphere1_StarsOuter_0"
    },
    {
      "children": [
        7
      ],
      "name": "GalaxySphere1",
      "translation": [
        0.0,
        0.0,
        -214.63577270507813
      ]
    },
    {
      "mesh": 1,
      "name": "GalaxySphere1_Galaxy_0"
    },
    {
      "children": [
        9
      ],
      "name": "FogSphere1",
      "translation": [
        0.0,
        0.0,
        -214.63577270507813
      ]
    },
    {
      "mesh": 2,
      "name": "FogSphere1_Fog_0"
    },
    {
      "children": [
        11
      ],
      "name": "StarsInnerSphere1",
      "translation": [
        -3.814697265625e-06,
        0.0,
        -214.63577270507813
      ]
    },
    {
      "mesh": 3,
      "name": "StarsInnerSphere1_StarsInner_0"
    },
    {
      "children": [
        13
      ],
      "name": "StarsInnerSphere2",
      "translation": [
        1.52587890625e-05,
        0.0,
        -214.63577270507813
      ]
    },
    {
      "mesh": 4,
      "name": "StarsInnerSphere2_StarsInner_0"
    },
    {
      "children": [
        15
      ],
      "name": "StarsInnerSphere3",
      "translation": [
        1.9073486328125e-06,
        0.0,
        -214.63577270507813
      ]
    },
    {
      "mesh": 5,
      "name": "StarsInnerSphere3_StarsInner_0"
    },
    {
      "children": [
        17
      ],
      "name": "StarsInnerSphere5",
      "translation": [
        -7.62939453125e-06,
        0.0,
        -214.63577270507813
      ]
    },
    {
      "mesh": 6,
      "name": "StarsInnerSphere5_StarsInner_0"
    },
    {
      "children": [
        19
      ],
      "name": "StarsInnerSphere7",
      "translation": [
        -1.52587890625e-05,
        0.0,
        -214.63577270507813
      ]
    },
    {
      "mesh": 7,
      "name": "StarsInnerSphere7_StarsInner_0"
    },
    {
      "children": [
        21
      ],
      "name": "StarsInnerSphere9",
      "translation": [
        -5.7220458984375e-06,
        0.0,
        -214.63577270507813
      ]
    },
    {
      "mesh": 8,
      "name": "StarsInnerSphere9_StarsInner_0"
    }
  ],
  "samplers": [
    {
      "magFilter": 9729,
      "minFilter": 9987,
      "wrapS": 10497,
      "wrapT": 10497
    }
  ],
  "scene": 0,
  "scenes": [
    {
      "name": "Sketchfab_Scene",
      "nodes": [
        0
      ]
    }
  ],
  "textures": [
    {
      "sampler": 0,
      "source": 0
    },
    {
      "sampler": 0,
      "source": 1
    },
    {
      "sampler": 0,
      "source": 2
    },
    {
      "sampler": 0,
      "source": 3
    },
    {
      "sampler": 0,
      "source": 4
    },
    {
      "sampler": 0,
      "source": 5
    }
  ]
}
